#!OML:ASF F:\VICON\USERDATA\INSTALL\rory3\rory3.ASF
:FULLY-SPECIFIED
:DEGREES
113
root 3.02282 17.0304 5.07008 -65.5972 -61.6473 89.4552
lowerback 3.2772 -5.0887 -1.66989
upperback -0.829148 -6.784 6.18069
thorax -1.73973 -3.37794 7.65508
lowerneck -2.9019 5.99406 3.8549
upperneck 38.8203 0.450181 12.4263
head 13.7619 1.58902 4.28458
rclavicle -3.18055e-015 -1.59028e-014
rhumerus 2.09099 50.5818 -11.1176
rradius 71.47
rwrist -89.3057
rhand 33.9748 -0.567013
rfingers 7.12502
rthumb 57.2405 -16.9509
lclavicle -3.18055e-015 -1.59028e-014
lhumerus -38.0466 -59.0204 69.723
lradius 41.0083
lwrist 18.2555
lhand 30.1715 17.4097
lfingers 7.12502
lthumb 53.8611 36.3412
rfemur -55.8596 -36.8067 5.04357
rtibia 49.9174
rfoot -32.5064 -38.4367
rtoes 33.5852
lfemur -32.4156 -0.723535 -2.81153
ltibia 33.0595
lfoot -37.2457 25.6869
ltoes 54.3963
114
root 3.01691 17.0741 4.99022 -66.9034 -60.8543 90.69
lowerback 3.80384 -5.07302 -1.14198
upperback -0.694703 -6.72785 5.50547
thorax -2.04506 -3.34114 6.6917
lowerneck -2.49175 6.21102 3.96739
upperneck 38.7438 0.569635 12.9186
head 13.6343 1.6949 4.4616
rclavicle -1.90833e-014 1.43125e-013
rhumerus 0.969711 48.0629 -10.7321
rradius 70.086
rwrist -88.8696
rhand 34.5562 -1.38539
rfingers 7.12502
rthumb 57.7499 -17.3291
lclavicle -1.90833e-014 1.43125e-013
lhumerus -36.6521 -58.0676 66.7691
lradius 39.2719
lwrist 13.8429
lhand 31.0154 18.3189
lfingers 7.12502
lthumb 54.6175 36.7307
rfemur -56.5351 -36.8436 4.64691
rtibia 50.5739
rfoot -33.4123 -38.5377
rtoes 35.3108
lfemur -31.5354 -2.32152 -1.34503
ltibia 32.6241
lfoot -40.7521 19.5167
ltoes 54.2423
115
root 3.01719 17.0598 4.94102 -67.8872 -60.3487 91.7132
lowerback 4.14502 -5.06168 -0.592661
upperback -0.496901 -6.68445 5.06327
thorax -2.15186 -3.32179 5.94422
lowerneck -2.32443 6.35836 4.29431
upperneck 38.7673 0.715052 12.9249
head 13.6151 1.80167 4.41903
rclavicle 0 -2.54444e-014
rhumerus 0.369169 45.7444 -9.46988
rradius 69.0329
rwrist -88.7375
rhand 35.5951 -1.97761
rfingers 7.12502
rthumb 58.6544 -17.097
lclavicle 0 -2.54444e-014
lhumerus -34.7333 -56.6939 63.4294
lradius 36.3925
lwrist 8.78457
lhand 32.081 15.7737
lfingers 7.12502
lthumb 55.5675 33.4938
rfemur -58.5673 -38.361 5.74511
rtibia 51.5248
rfoot -32.1594 -38.5429
rtoes 35.3519
lfemur -30.9729 -4.51765 0.828434
ltibia 32.1988
lfoot -43.1901 15.7338
ltoes 54.5045
116
root 3.01176 17.0325 4.91961 -69.8537 -59.2873 93.7619
lowerback 4.51583 -4.9508 -0.810435
upperback -0.276365 -6.55011 4.45635
thorax -2.19184 -3.25013 5.45071
lowerneck -2.18761 6.43219 4.97709
upperneck 38.813 0.865735 12.4702
head 13.6326 1.91274 4.12793
rclavicle 3.18055e-014 -2.22639e-014
rhumerus 0.108139 43.7296 -7.57609
rradius 68.1291
rwrist -88.4615
rhand 36.1702 -1.91891
rfingers 7.12502
rthumb 59.1519 -16.5597
lclavicle 3.18055e-014 -2.22639e-014
lhumerus -33.7764 -55.8134 61.1194
lradius 35.2564
lwrist 4.09114
lhand 30.8042 17.1823
lfingers 7.12502
lthumb 54.4285 35.7265
rfemur -60.8685 -39.8208 6.23834
rtibia 52.4651
rfoot -30.9631 -38.4952
rtoes 35.121
lfemur -30.0476 -5.6811 2.09336
ltibia 31.5634
lfoot -42.9123 19.6167
ltoes 55.2846
117
root 3.01271 16.9922 4.89771 -71.5891 -58.2336 95.3606
lowerback 5.18129 -4.78476 -0.965929
upperback -0.0191182 -6.34378 3.74448
thorax -2.38171 -3.14188 4.83938
lowerneck -2.14417 6.38543 5.94187
upperneck 38.803 0.77296 12.0575
head 13.6783 1.96062 3.78066
rclavicle -2.54444e-014 -4.77083e-014
rhumerus -1.09108 41.1913 -6.9797
rradius 66.7698
rwrist -87.0901
rhand 36.5519 -1.97967
rfingers 7.12502
rthumb 59.4807 -16.2939
lclavicle -2.54444e-014 -4.77083e-014
lhumerus -32.0279 -55.1553 58.0169
lradius 33.9157
lwrist -0.0324167
lhand 30.8879 17.9444
lfingers 7.12502
lthumb 54.5034 36.4363
rfemur -63.3049 -41.604 7.05167
rtibia 53.481
rfoot -29.617 -38.5241
rtoes 34.4149
lfemur -29.0292 -6.26641 3.25999
ltibia 31.2175
lfoot -42.5619 21.8886
ltoes 54.6822
118
root 3.02116 16.971 4.84012 -72.4543 -57.4925 96.3621
lowerback 5.49776 -4.53564 -0.908887
upperback 0.17427 -6.02025 3.15104
thorax -2.45679 -2.98107 4.19457
lowerneck -2.00413 6.24946 6.68698
upperneck 38.5041 0.469722 12.1485
head 13.5683 1.92979 3.63248
rclavicle 1.27222e-014 5.08889e-014
rhumerus -2.79958 38.1177 -6.64863
rradius 65.2191
rwrist -85.4991
rhand 36.4585 -2.27431
rfingers 7.12502
rthumb 59.4003 -16.6691
lclavicle 1.27222e-014 5.08889e-014
lhumerus -29.2202 -54.5321 54.2218
lradius 31.8699
lwrist -4.30568
lhand 30.8948 17.9868
lfingers 7.12502
lthumb 54.5096 36.4743
rfemur -65.6675 -42.535 8.17904
rtibia 54.2901
rfoot -30.833 -39.0895
rtoes 35.6988
lfemur -28.27 -6.49109 4.7446
ltibia 30.7704
lfoot -43.39 21.1276
ltoes 53.963
119
root 3.02276 16.9458 4.79268 -73.0369 -56.7341 97.2625
lowerback 5.49219 -4.27976 -0.684926
upperback 0.382549 -5.68372 2.45967
thorax -2.35643 -2.81952 3.32541
lowerneck -2.07313 6.11015 7.48148
upperneck 38.2438 0.0372936 12.4544
head 13.535 1.87566 3.56125
rclavicle 7.31528e-014 1.90833e-014
rhumerus -4.43333 34.9236 -6.00104
rradius 63.7596
rwrist -84.2743
rhand 36.4702 -2.99242
rfingers 7.12502
rthumb 59.4104 -17.3771
lclavicle 7.31528e-014 1.90833e-014
lhumerus -26.0832 -54.1378 50.1152
lradius 29.754
lwrist -8.27258
lhand 30.1402 17.9407
lfingers 7.12502
lthumb 53.833 36.891
rfemur -68.5117 -43.6485 9.81385
rtibia 54.8531
rfoot -31.3244 -40.3306
rtoes 36.137
lfemur -27.6258 -6.84362 6.14002
ltibia 30.2305
lfoot -45.1596 19.0302
ltoes 53.9073
120
root 3.03145 16.9178 4.74128 -73.3749 -56.2371 97.7363
lowerback 5.75837 -4.07748 -0.183171
upperback 0.571581 -5.39935 1.83617
thorax -2.43356 -2.68424 2.40292
lowerneck -2.34969 5.96916 8.4448
upperneck 38.2701 -0.481074 12.6229
head 13.6947 1.80618 3.42345
rclavicle -3.49861e-014 -5.40694e-014
rhumerus -5.9366 32.2568 -4.85327
rradius 62.7272
rwrist -83.4584
rhand 36.4943 -4.0372
rfingers 7.12502
rthumb 59.4312 -18.4011
lclavicle -3.49861e-014 -5.40694e-014
lhumerus -23.2224 -54.0632 46.029
lradius 28.5155
lwrist -11.2795
lhand 29.4672 18.8228
lfingers 7.12502
lthumb 53.2273 38.1702
rfemur -71.1563 -44.7184 11.8065
rtibia 55.1564
rfoot -32.8402 -41.647
rtoes 36.7653
lfemur -26.8101 -7.31469 8.00526
ltibia 29.5367
lfoot -46.497 18.087
ltoes 53.6779
121
root 3.0434 16.887 4.68716 -73.8549 -55.7568 98.2552
lowerback 6.23312 -3.93186 0.141769
upperback 0.750372 -5.19849 1.30528
thorax -2.60021 -2.58888 1.69482
lowerneck -2.5184 5.8789 9.19749
upperneck 38.1463 -0.871959 12.8739
head 13.7425 1.76306 3.35437
rclavicle 3.49861e-014 -8.90555e-014
rhumerus -7.13147 26.2514 -4.96686
rradius 58.9482
rwrist -78.6828
rhand 39.923 -4.79921
rfingers 7.12502
rthumb 62.3314 -15.8743
lclavicle 3.49861e-014 -8.90555e-014
lhumerus -20.6141 -53.3821 42.1201
lradius 27.5648
lwrist -14.1132
lhand 28.9066 19.9083
lfingers 7.12502
lthumb 52.7213 39.5756
rfemur -73.5879 -45.6381 13.8557
rtibia 55.2616
rfoot -35.8607 -42.0352
rtoes 39.0526
lfemur -25.8499 -7.43379 9.79653
ltibia 28.8394
lfoot -47.1881 17.9382
ltoes 53.557
122
root 3.04459 16.8579 4.6337 -74.9807 -54.8887 99.2259
lowerback 6.91859 -3.81786 -0.10288
upperback 0.992477 -5.0848 0.743349
thorax -2.76502 -2.53382 1.28674
lowerneck -2.57636 5.87373 9.62581
upperneck 38.0014 -1.05242 13.123
head 13.7275 1.76213 3.35753
rclavicle 1.08139e-013 4.45278e-014
rhumerus -7.58779 23.4263 -3.76508
rradius 56.7615
rwrist -75.6274
rhand 39.9957 -3.5861
rfingers 7.12502
rthumb 62.3917 -14.5836
lclavicle 1.08139e-013 4.45278e-014
lhumerus -18.3098 -51.8127 38.5414
lradius 26.2405
lwrist -16.8068
lhand 28.1759 21.1318
lfingers 7.12502
lthumb 52.0597 41.2019
rfemur -75.6358 -46.5783 15.5264
rtibia 54.9942
rfoot -38.3221 -41.7708
rtoes 41.373
lfemur -24.2312 -7.85025 10.7978
ltibia 27.6113
lfoot -48.7808 15.7105
ltoes 53.9164
